<?xml version="1.0" encoding="UTF-8" standalone="no"?>
<!-- Created with Inkscape (http://www.inkscape.org/) -->

<svg
   xmlns:dc="http://purl.org/dc/elements/1.1/"
   xmlns:cc="http://creativecommons.org/ns#"
   xmlns:rdf="http://www.w3.org/1999/02/22-rdf-syntax-ns#"
   xmlns:svg="http://www.w3.org/2000/svg"
   xmlns="http://www.w3.org/2000/svg"
   xmlns:sodipodi="http://sodipodi.sourceforge.net/DTD/sodipodi-0.dtd"
   xmlns:inkscape="http://www.inkscape.org/namespaces/inkscape"
   width="92.891876mm"
   height="157.86879mm"
   viewBox="0 0 92.891876 157.86879"
   version="1.1"
   id="svg894"
   inkscape:version="0.92.4 (f8dce91, 2019-08-02)"
   sodipodi:docname="mpeck.svg">
  <defs
     id="defs888" />
  <sodipodi:namedview
     id="base"
     pagecolor="#ffffff"
     bordercolor="#666666"
     borderopacity="1.0"
     inkscape:pageopacity="0.0"
     inkscape:pageshadow="2"
     inkscape:zoom="0.49497475"
     inkscape:cx="-186.6432"
     inkscape:cy="265.52512"
     inkscape:document-units="mm"
     inkscape:current-layer="layer1"
     showgrid="false"
     fit-margin-top="0"
     fit-margin-left="0"
     fit-margin-right="0"
     fit-margin-bottom="0"
     inkscape:window-width="1600"
     inkscape:window-height="846"
     inkscape:window-x="0"
     inkscape:window-y="28"
     inkscape:window-maximized="1" />
  <metadata
     id="metadata891">
    <rdf:RDF>
      <cc:Work
         rdf:about="">
        <dc:format>image/svg+xml</dc:format>
        <dc:type
           rdf:resource="http://purl.org/dc/dcmitype/StillImage" />
        <dc:title />
      </cc:Work>
    </rdf:RDF>
  </metadata>
  <g
     inkscape:label="Layer 1"
     inkscape:groupmode="layer"
     id="layer1"
     transform="translate(-61.961858,-57.698953)">
    <path
       style="fill:#8a494f;fill-opacity:1;stroke:#000000;stroke-width:0.26458332px;stroke-linecap:butt;stroke-linejoin:miter;stroke-opacity:0.99607843"
       d="m 70.461542,87.56777 c -0.80181,1.069078 -4.54358,13.36348 -3.74177,18.4416 0,0 0.0432,10.91934 1.17717,14.7936 0,0 0.37797,5.19717 0,10.67782 0,0 0,14.45759 1.03943,19.46578 0,0 13.151401,69.05327 63.798968,0.49862 0,0 19.51068,-44.09947 18.70887,-52.384833 0,0 -16.57072,-61.73926 -80.982668,-11.492587 z"
       id="face"
       inkscape:connector-curvature="0" />
    <path
       style="display:inline;fill:#341f10;fill-opacity:1;stroke:#000000;stroke-width:0.26458332px;stroke-linecap:butt;stroke-linejoin:miter;stroke-opacity:1"
       d="m 67.254312,103.60395 c 0,0 -7.216278,-5.078133 -4.54358,-15.234371 0,0 -2.672697,-13.630745 3.20723,-16.036171 0,0 6.68174,-8.552625 18.97614,-11.759859 0,0 22.450638,-8.552624 45.703088,4.543582 0,0 14.96709,3.741773 23.25245,28.86511 0,0 -0.53454,30.735999 -10.15624,50.513939 l -1.33635,-2.67269 -0.53455,1.60362 -1.87088,-5.07813 -5.34539,-0.8018 c 0,0 -1.33635,-28.0633 -14.16528,-34.74504 0,0 7.75081,-15.501639 -4.27632,-21.114298 l 10.69079,-8.552625 -21.91611,7.483546 c 0,0 -18.708857,0 -25.925137,4.276313 0,0 -12.027131,1.603626 -11.759861,18.708874 z"
       id="hair"
       inkscape:connector-curvature="0"
       sodipodi:nodetypes="ccccccccccccccccc" />
    <path
       style="fill:#341f10;fill-opacity:1;stroke:#000000;stroke-width:0.26499999;stroke-linecap:butt;stroke-linejoin:miter;stroke-miterlimit:4;stroke-dasharray:none;stroke-opacity:1"
       d="m 87.032253,107.88026 c 0,0 -1.336341,2.93996 3.20724,4.54358 0,0 8.81989,-3.4745 18.708867,-2.13816 l 4.27631,-0.8018 c 0,0 -5.87993,-4.27632 -10.15624,-4.00905 0,0 -12.294407,0.80181 -16.036177,2.40543 z"
       id="right_brow"
       inkscape:connector-curvature="0" />
    <path
       style="fill:#341f10;fill-opacity:1;stroke:#000000;stroke-width:0.26458332px;stroke-linecap:butt;stroke-linejoin:miter;stroke-opacity:1"
       d="m 66.719772,118.30377 c 0,0 -2.40543,-2.93997 -0.80181,-5.61266 2.40543,0 5.34539,-2.13816 8.28536,-1.33635 0,0 4.276311,1.87089 2.93996,2.40543 -13.43223,0.61124 -10.42351,4.54358 -10.42351,4.54358 z"
       id="left_brow"
       inkscape:connector-curvature="0" />
    <path
       style="fill:#e6e6e6;stroke:#000000;stroke-width:0.26458332px;stroke-linecap:butt;stroke-linejoin:miter;stroke-opacity:1"
       d="m 93.315843,118.25163 c 0,0 8.315467,-10.20536 17.008917,-3.2128 -7.37054,5.66964 -17.008917,3.2128 -17.008917,3.2128 z"
       id="r_eye"
       inkscape:connector-curvature="0" />
    <path
       style="display:inline;fill:#f2f2f2;fill-opacity:1;stroke:#000000;stroke-width:0.26458332px;stroke-linecap:butt;stroke-linejoin:miter;stroke-opacity:1"
       d="m 69.692322,120.33049 c 0,0 6.803581,-5.66964 11.150301,-1.5119 -3.2128,3.40178 -11.150301,1.5119 -11.150301,1.5119 z"
       id="l_eye"
       inkscape:connector-curvature="0" />
    <circle
       style="fill:#0000ff;fill-opacity:1;stroke:none;stroke-width:0.2077027;stroke-miterlimit:4;stroke-dasharray:none"
       id="l_eyeball"
       cx="76.727425"
       cy="119.06899"
       r="2.0552454" />
    <circle
       r="2.7673085"
       cy="115.01183"
       cx="104.32304"
       id="r_eyeball"
       style="fill:#0000ff;fill-opacity:1;stroke:none;stroke-width:0.27966365;stroke-miterlimit:4;stroke-dasharray:none" />
    <path
       style="display:inline;opacity:0.98999999;fill:#8a494f;fill-opacity:1;stroke:#000000;stroke-width:0.26458332px;stroke-linecap:butt;stroke-linejoin:miter;stroke-opacity:1"
       d="m 81.419603,115.09653 c 0,0 -3.74178,16.83799 -5.078131,17.37252 0,0 -3.34185,5.43734 1.47734,7.79969 0,0 2.92932,0.28348 4.630211,-0.75595 0,0 4.7247,-2.17337 7.559531,-1.22842 0,0 3.496278,1.32291 5.102669,-1.88989"
       id="nose"
       inkscape:connector-curvature="0" />
    <path
       style="display:inline;fill:none;stroke:#000000;stroke-width:0.26458332px;stroke-linecap:butt;stroke-linejoin:miter;stroke-opacity:1"
       d="m 81.820502,151.31155 c 0,0 19.644308,0.13364 22.851538,-4.67721 0,0 1.87089,4.54358 -4.00904,7.48355 0,0 -13.898007,2.13815 -16.437068,1.87088 0,0 -3.474509,0.53453 -2.40543,-4.67722 z"
       id="lip"
       inkscape:connector-curvature="0" />
    <path
       style="fill:#2b2200;fill-opacity:1;stroke:#000000;stroke-width:0.26458332px;stroke-linecap:butt;stroke-linejoin:miter;stroke-opacity:1"
       d="m 134.94918,135.35641 c -2.02467,0.002 -4.58009,0.29404 -7.8047,1.03818 l -13.22916,9.07128 c 0,0 -3.77976,-7.55953 -13.22917,-5.29167 -21.759096,0.35528 -28.915028,4.15789 -28.915028,4.15789 0,0 -6.992567,6.42538 -9.260417,34.77359 0,0 -6.047475,37.79755 27.970384,36.28565 0,0 38.931251,1.88995 52.538391,-28.34815 0,0 3.77999,-24.19025 -0.37775,-48.00276 0,0 -0.4616,-3.69122 -7.69255,-3.68401 z m -30.17181,11.15643 c 0,0 1.87088,4.54381 -4.00905,7.48378 0,0 -13.898181,2.13796 -16.437242,1.87069 0,0 -3.474617,0.53451 -2.405539,-4.67724 0,0 19.644601,0.13362 22.851831,-4.67723 z"
       id="beard"
       inkscape:connector-curvature="0" />
    <path
       style="display:inline;fill:#8a494f;fill-opacity:1;stroke:#000000;stroke-width:0.26458332px;stroke-linecap:butt;stroke-linejoin:miter;stroke-opacity:1"
       d="m 139.68435,128.32638 c 0,0 -0.26727,5.07812 3.87541,4.94448 0,0 3.74177,1.06908 5.87993,-7.34991 0,0 3.20723,-6.94901 3.34087,-8.28535 0,0 4.27631,-4.94449 0.13363,-8.28536 0,0 -1.20271,-2.53906 -4.94448,-1.20271 -3.74178,1.33635 -4.54358,5.47902 -4.54358,5.47902"
       id="ear"
       inkscape:connector-curvature="0" />
    <path
       style="fill:none;stroke:#000000;stroke-width:0.26458332px;stroke-linecap:butt;stroke-linejoin:miter;stroke-opacity:1"
       d="m 142.22341,122.31281 c 0,0 2.53906,1.06908 3.4745,-2.00452 1e-5,-1.46998 -0.4009,-4.94449 -0.8018,-4.94449"
       id="ear_d_1"
       inkscape:connector-curvature="0" />
    <path
       style="fill:none;stroke:#000000;stroke-width:0.26458332px;stroke-linecap:butt;stroke-linejoin:miter;stroke-opacity:1"
       d="m 148.63788,123.11462 c 0,0 3.4745,-7.61718 3.20723,-9.75534 0,0 -1.46998,-5.87993 -5.47902,-3.34087"
       id="ear_d_2"
       inkscape:connector-curvature="0" />
  </g>
</svg>
